HIERARCHY
ROOT Hips
{
	OFFSET 0.000000 0.000000 0.000000
	CHANNELS 6 Xposition Yposition Zposition Xrotation Yrotation Zrotation
	JOINT LeftUpLeg_virtual
	{
		OFFSET 0.000000 0.000000 0.000000
		CHANNELS 3 Xrotation Yrotation Zrotation
		JOINT LeftUpLeg
		{
			OFFSET 11.394100 -6.187798 -0.413800
			CHANNELS 3 Xrotation Yrotation Zrotation
			JOINT LeftLeg
			{
				OFFSET 0.430247 -32.302673 3.732800
				CHANNELS 3 Xrotation Yrotation Zrotation
				JOINT LeftFoot
				{
					OFFSET -0.430247 -48.264931 -6.423300
					CHANNELS 3 Xrotation Yrotation Zrotation
					JOINT LeftToeBase
					{
						OFFSET 4.230900 -16.068199 23.438400
						CHANNELS 3 Xrotation Yrotation Zrotation
						JOINT LeftToe_End
						{
							OFFSET 4.510700 0.695400 19.974600
							CHANNELS 3 Xrotation Yrotation Zrotation
							End Site
							{
								OFFSET 0 0 0
							}
						}
					}
				}
			}
		}
	}
	JOINT RightUpLeg_virtual
	{
		OFFSET 0.000000 0.000000 0.000000
		CHANNELS 3 Xrotation Yrotation Zrotation
		JOINT RightUpLeg
		{
			OFFSET -11.333700 -6.187798 -0.413800
			CHANNELS 3 Xrotation Yrotation Zrotation
			JOINT RightLeg
			{
				OFFSET -0.430392 -32.302628 3.733000
				CHANNELS 3 Xrotation Yrotation Zrotation
				JOINT RightFoot
				{
					OFFSET 0.430392 -48.264973 -6.423500
					CHANNELS 3 Xrotation Yrotation Zrotation
					JOINT RightToeBase
					{
						OFFSET -4.230900 -16.068199 23.438400
						CHANNELS 3 Xrotation Yrotation Zrotation
						JOINT RightToe_End
						{
							OFFSET -4.510700 0.695400 19.974600
							CHANNELS 3 Xrotation Yrotation Zrotation
							End Site
							{
								OFFSET 0 0 0
							}
						}
					}
				}
			}
		}
	}
	JOINT Spine_virtual
	{
		OFFSET 0.000000 0.000000 0.000000
		CHANNELS 3 Xrotation Yrotation Zrotation
		JOINT Spine
		{
			OFFSET -0.002400 12.777504 0.315300
			CHANNELS 3 Xrotation Yrotation Zrotation
			JOINT Spine1
			{
				OFFSET -0.002067 5.816869 0.032633
				CHANNELS 3 Xrotation Yrotation Zrotation
				JOINT Spine1_split
				{
					OFFSET -0.002067 5.816869 0.032633
					CHANNELS 3 Xrotation Yrotation Zrotation
					JOINT Spine2
					{
						OFFSET -0.002067 5.816869 0.032633
						CHANNELS 3 Xrotation Yrotation Zrotation
						JOINT Neck_virtual
						{
							OFFSET 0.000000 0.000000 0.000000
							CHANNELS 3 Xrotation Yrotation Zrotation
							JOINT Neck
							{
								OFFSET -0.003700 21.199493 -0.826900
								CHANNELS 3 Xrotation Yrotation Zrotation
								JOINT Head
								{
									OFFSET 0.000000 20.442200 4.834800
									CHANNELS 3 Xrotation Yrotation Zrotation
									JOINT HeadTop_End
									{
										OFFSET 0.000000 34.668396 4.968400
										CHANNELS 3 Xrotation Yrotation Zrotation
										End Site
										{
											OFFSET 0 0 0
										}
									}
								}
							}
						}
						JOINT LeftShoulder_virtual
						{
							OFFSET 0.000000 0.000000 0.000000
							CHANNELS 3 Xrotation Yrotation Zrotation
							JOINT LeftShoulder
							{
								OFFSET 3.288150 8.794197 -1.372250
								CHANNELS 3 Xrotation Yrotation Zrotation
								JOINT LeftShoulder_split
								{
									OFFSET 3.288150 8.794197 -1.372250
									CHANNELS 3 Xrotation Yrotation Zrotation
									JOINT LeftArm
									{
										OFFSET 11.953299 -2.279007 -0.146200
										CHANNELS 3 Xrotation Yrotation Zrotation
										JOINT LeftForeArm
										{
											OFFSET 18.448900 0.000000 0.000000
											CHANNELS 3 Xrotation Yrotation Zrotation
											JOINT LeftHand
											{
												OFFSET 29.527798 0.000000 0.000000
												CHANNELS 3 Xrotation Yrotation Zrotation
												End Site
												{
													OFFSET 0 0 0
												}
											}
										}
									}
								}
							}
						}
						JOINT RightShoulder_virtual
						{
							OFFSET 0.000000 0.000000 0.000000
							CHANNELS 3 Xrotation Yrotation Zrotation
							JOINT RightShoulder
							{
								OFFSET -3.249400 8.794197 -1.372250
								CHANNELS 3 Xrotation Yrotation Zrotation
								JOINT RightShoulder_split
								{
									OFFSET -3.249400 8.794197 -1.372250
									CHANNELS 3 Xrotation Yrotation Zrotation
									JOINT RightArm
									{
										OFFSET -11.953299 -2.279007 -0.146200
										CHANNELS 3 Xrotation Yrotation Zrotation
										JOINT RightForeArm
										{
											OFFSET -18.448900 0.000000 0.000000
											CHANNELS 3 Xrotation Yrotation Zrotation
											JOINT RightHand
											{
												OFFSET -29.527802 0.000000 0.000000
												CHANNELS 3 Xrotation Yrotation Zrotation
												End Site
												{
													OFFSET 0 0 0
												}
											}
										}
									}
								}
							}
						}
					}
				}
			}
		}
	}
}
MOTION
Frames: 9
Frame Time: 0.03333333
0.861285 83.062752 -1.812027 0.000000 0.000000 0.000000 -8.037359 -48.106409 -3.555284 -35.129060 3.481075 22.053622 57.048820 -0.000330 3.529548 -8.526287 -7.995847 -12.087154 -5.487693 0.788725 2.855106 0.000000 0.000000 0.000000 -8.773194 -46.472395 -2.965540 -21.505488 -9.793861 -28.788380 60.175394 2.429942 -2.446599 -22.951958 -12.047734 22.578712 0.755203 0.352036 -0.811071 0.000000 0.000000 0.000000 -8.536136 -46.869503 -4.165848 12.013191 7.660475 -2.345579 0.882317 1.261665 -0.505482 0.065566 -0.770676 1.294406 0.000000 0.000000 0.000000 0.775465 1.878345 -0.523542 1.850885 13.951354 5.325809 6.189703 16.846781 -2.686701 0.000000 0.000000 0.000000 2.502404 1.225881 0.093326 0.661809 3.545084 -6.390848 -3.481033 -3.547521 -4.240625 -50.371231 5.084348 -45.133050 175.158562 -72.205837 177.083378 0.000000 0.000000 0.000000 2.078417 1.441470 -0.497064 4.182461 11.694552 -5.292717 -1.787515 -5.511351 -1.929234 -51.569137 20.250688 85.974255 179.785414 73.316589 -177.714569 0.000000 0.000000 0.000000 
1.166566 82.480797 -1.039188 0.000000 0.000000 0.000000 -8.227829 -48.906494 -3.437453 -36.568683 2.753209 22.185165 59.607512 -0.067248 3.277290 -8.424602 -7.766231 -12.799908 -7.677424 0.568967 3.057475 0.000000 0.000000 0.000000 -9.190817 -47.523889 -2.933611 -22.214866 -9.844084 -29.673873 62.240427 3.399589 -2.627681 -23.961279 -12.276705 22.742768 1.643253 0.249375 -0.580317 0.000000 0.000000 0.000000 -8.292400 -47.327306 -3.863502 12.496010 7.869066 -2.477107 1.069357 1.143661 -0.468843 0.424757 -0.741724 1.545811 0.000000 0.000000 0.000000 0.837427 1.764838 -0.507901 1.806535 13.937821 5.358533 6.293011 16.906738 -2.546841 0.000000 0.000000 0.000000 2.410702 1.175241 0.152192 0.550243 3.358343 -6.786580 -1.265455 -5.512144 -3.538523 -52.288138 5.008793 -45.906685 171.585417 -72.191602 173.191727 0.000000 0.000000 0.000000 2.032609 1.357176 -0.463525 4.280512 12.283181 -5.212355 -1.369473 -5.868613 -1.236020 -52.733917 22.232775 86.293143 -179.550742 73.570344 -178.238185 0.000000 0.000000 0.000000 
1.360042 81.152008 -0.052958 0.000000 0.000000 0.000000 -8.155908 -50.047351 -2.924003 -39.474139 1.180400 23.090868 65.114427 -1.917838 2.715736 -8.762888 -9.307663 -14.523361 -11.187318 -0.286817 5.193076 0.000000 0.000000 0.000000 -9.205621 -48.702285 -2.526477 -23.135505 -8.548759 -30.948803 64.498938 4.826250 -3.475393 -24.374246 -12.682907 23.386346 0.745852 0.092293 0.418515 0.000000 0.000000 0.000000 -8.068819 -48.508598 -3.367770 13.616248 8.301857 -2.499151 1.019710 1.028755 -0.590258 0.612352 -0.742942 1.362632 0.000000 0.000000 0.000000 0.561096 1.613874 -0.646548 1.342095 14.038457 5.509532 7.046180 17.127893 -2.134755 0.000000 0.000000 0.000000 2.180554 1.103772 0.046418 0.429736 3.236913 -7.506642 0.433681 -6.319332 -2.501907 -52.831066 4.648382 -46.394169 166.811074 -72.467774 168.164749 0.000000 0.000000 0.000000 1.624030 1.245716 -0.541679 4.320872 12.907722 -4.927941 -1.493847 -5.309346 -0.926264 -53.624129 23.224612 85.870047 -179.043546 74.285527 -179.259899 0.000000 0.000000 0.000000 
1.539607 79.199883 1.073507 0.000000 0.000000 0.000000 -7.891212 -51.424505 -2.173705 -43.614532 -1.035493 24.562863 72.322360 -5.185290 2.195503 -9.616199 -11.950211 -16.695885 -13.758447 -1.541092 8.110002 0.000000 0.000000 0.000000 -8.745978 -49.846526 -1.734123 -24.404017 -6.154757 -32.586993 66.486100 6.452715 -4.794808 -24.396520 -13.050372 24.129262 -1.111344 -0.136726 1.778228 0.000000 0.000000 0.000000 -7.986668 -50.437532 -2.888565 15.171587 8.862865 -2.372559 0.755752 0.985522 -0.853715 0.663551 -0.211523 0.962551 0.000000 0.000000 0.000000 -0.020923 1.530219 -0.889650 0.474105 14.230787 5.687802 8.118563 17.746379 -1.728034 0.000000 0.000000 0.000000 1.743309 1.061288 -0.188818 0.357773 3.438942 -8.268674 1.636231 -5.696467 -1.296902 -51.324787 5.316563 -45.890999 163.908803 -71.970994 165.108963 0.000000 0.000000 0.000000 0.875521 1.170199 -0.748047 4.280289 13.438828 -4.652759 -1.724130 -3.966231 -0.878130 -54.255464 22.939137 84.957349 -177.776082 75.159053 178.392329 0.000000 0.000000 0.000000 
1.897799 76.768517 2.521275 0.000000 0.000000 0.000000 -7.346963 -53.058798 -1.192678 -48.017302 -3.600040 26.217652 78.988296 -8.443278 1.686623 -11.500544 -14.403447 -17.607806 -14.467686 -2.731108 10.367731 0.000000 0.000000 0.000000 -7.989657 -50.912616 -0.716929 -26.369861 -3.033313 -34.629250 67.955116 8.020055 -6.211754 -24.138927 -13.087557 24.637165 -2.004489 -0.300458 2.832968 0.000000 0.000000 0.000000 -8.006515 -52.769359 -2.459323 16.923875 9.361934 -2.063283 0.293252 1.032110 -1.220314 0.692046 0.253300 0.519862 0.000000 0.000000 0.000000 -0.768912 1.558219 -1.187012 -0.571731 14.576310 5.746150 9.072316 18.999373 -1.625220 0.000000 0.000000 0.000000 1.110929 1.089021 -0.508862 0.334613 4.057301 -8.910852 2.267455 -4.188248 0.331313 -47.779898 7.989484 -44.160762 165.989361 -69.452178 167.062821 0.000000 0.000000 0.000000 -0.097747 1.146022 -1.072634 4.108532 13.672377 -4.687583 -2.001734 -2.757095 -0.816069 -54.876629 22.352282 84.260970 -175.424516 75.986182 174.611464 0.000000 0.000000 0.000000 
2.569870 74.177147 4.576780 0.000000 0.000000 0.000000 -6.672214 -54.822534 -0.108489 -52.523311 -6.726936 28.123606 84.142548 -11.450218 1.708447 -11.958889 -16.046107 -18.545441 -14.221624 -3.368957 11.105034 0.000000 0.000000 0.000000 -7.013648 -52.281598 0.467944 -29.474565 0.196284 -37.319983 68.857637 9.398961 -7.310667 -23.113645 -12.569448 25.053083 -1.580029 -0.253657 2.987508 0.000000 0.000000 0.000000 -7.976303 -54.961914 -2.042457 18.498126 9.594253 -1.623924 -0.271255 1.146000 -1.578304 0.433888 0.222906 0.400603 0.000000 0.000000 0.000000 -1.479855 1.676793 -1.443436 -1.558491 15.104736 5.526169 9.667932 21.105973 -2.129298 0.000000 0.000000 0.000000 0.391434 1.186515 -0.821684 0.366994 5.117925 -9.286190 2.524747 -2.612112 2.061981 -43.980742 12.222209 -41.797817 171.498701 -64.683312 172.306535 0.000000 0.000000 0.000000 -1.067687 1.179575 -1.433232 3.874894 13.412939 -5.257179 -2.058767 -2.194261 -0.533589 -55.692618 23.046166 84.826298 -171.841686 76.851677 169.711910 0.000000 0.000000 0.000000 
3.554908 71.794876 7.365458 0.000000 0.000000 0.000000 -5.980874 -56.939025 0.876033 -56.624201 -10.268035 30.236192 86.587169 -13.957089 2.321601 -8.753701 -16.751580 -20.766227 -14.373967 -3.283829 9.753928 0.000000 0.000000 0.000000 -6.285107 -54.089463 1.435841 -33.308842 3.073018 -40.777264 68.567989 10.821814 -7.964546 -20.838113 -11.254761 26.152405 -1.021438 -0.038148 1.904515 0.000000 0.000000 0.000000 -7.894684 -56.908282 -1.746773 19.625326 9.189115 -1.213047 -0.827914 1.231034 -1.792922 0.161946 0.008183 0.817936 0.000000 0.000000 0.000000 -1.906562 1.759557 -1.548838 -2.343655 15.868394 5.046020 9.751826 23.985469 -3.307983 0.000000 0.000000 0.000000 -0.255793 1.267606 -1.043949 0.362537 6.452730 -9.407101 2.409005 -1.804551 3.372670 -41.510208 16.752345 -39.573235 176.654059 -59.442617 177.176091 0.000000 0.000000 0.000000 -1.797832 1.190917 -1.665235 3.532169 12.615279 -6.230271 -1.588935 -2.539436 0.373129 -56.936682 26.451159 86.602468 -167.937659 77.416916 165.075646 0.000000 0.000000 0.000000 
4.717789 69.773773 10.709749 0.000000 0.000000 0.000000 -5.372258 -59.128306 1.589949 -58.915593 -13.074495 32.705784 84.655400 -14.956256 2.578546 -3.376443 -15.990176 -22.894336 -15.197810 -2.527654 6.406252 0.000000 0.000000 0.000000 -6.002269 -56.108508 1.913819 -36.384848 5.269583 -44.733651 66.481373 12.394569 -8.195468 -17.335708 -8.929764 27.963891 -1.198534 0.327712 -0.028179 0.000000 0.000000 0.000000 -7.825677 -58.394258 -1.697006 20.098284 7.944768 -1.000645 -1.243721 1.151930 -1.719681 0.002964 -0.677569 1.264262 0.000000 0.000000 0.000000 -1.945870 1.652601 -1.426617 -2.753287 16.865515 4.381876 9.239246 27.497278 -5.036126 0.000000 0.000000 0.000000 -0.622322 1.228458 -1.064985 0.342114 7.881888 -9.338536 2.172559 -1.775935 3.992030 -41.369267 19.602645 -37.808963 -179.813582 -57.648333 -179.653031 0.000000 0.000000 0.000000 -2.072370 1.080364 -1.652138 3.047628 11.335528 -7.244516 -1.232291 -3.224911 1.608849 -58.716616 33.058662 89.358060 -165.523433 77.442850 162.641339 0.000000 0.000000 0.000000 
5.725347 68.141716 14.491737 0.000000 0.000000 0.000000 -4.982433 -60.959766 1.674223 -59.097133 -14.651140 35.383416 78.066480 -14.160812 2.341210 2.031866 -13.620166 -24.309903 -14.749472 -1.263196 1.928640 0.000000 0.000000 0.000000 -6.116310 -58.083451 1.718330 -37.058697 6.336270 -48.603107 61.973148 13.947833 -7.943181 -13.062887 -5.922036 29.430780 -2.473472 0.793607 -1.710406 0.000000 0.000000 0.000000 -7.625107 -59.217132 -1.924602 19.711419 5.723887 -1.090501 -1.333224 0.870408 -1.272877 0.601582 -1.181217 1.625532 0.000000 0.000000 0.000000 -1.664584 1.295966 -1.019330 -2.845611 17.936213 3.675081 8.202545 31.250035 -7.019767 0.000000 0.000000 0.000000 -0.566868 0.961564 -0.803244 0.257997 8.934223 -8.973217 2.394711 -2.123821 4.267296 -43.939881 19.605672 -36.171073 -177.342392 -62.999042 -177.532135 0.000000 0.000000 0.000000 -1.763037 0.798455 -1.302067 2.480567 9.732238 -8.170854 -1.547722 -3.618834 2.604260 -59.860201 42.066322 91.752048 -165.211935 77.044281 162.875177 0.000000 0.000000 0.000000 
